{"title":"TED 2 {2015} HDTS XVID AC3 NEWSOURCE-MRG","uid":12097154,"size":1725842723,"categoryP":"video","categoryS":"movies","magnet":"?xt=urn:btih:60dfb25a5338f7395200df462d430a5c4c84a12c&amp;dn=TED+2+%7B2015%7D+HDTS+XVID+AC3+NEWSOURCE-MRG&amp;tr=udp%3A%2F%2Ftracker.openbittorrent.com%3A80&amp;tr=udp%3A%2F%2Fopen.demonii.com%3A1337&amp;tr=udp%3A%2F%2Ftracker.coppersurfer.tk%3A6969&amp;tr=udp%3A%2F%2Fexodus.desync.com%3A6969","seeders":2,"leechers":0,"uploader":"makintos13","files":14,"time":1436194312,"description":"screens:\n &lt;a href=&quot;\nhttp://imgmak.com/Pm&quot; rel=&quot;nofollow&quot; target=&quot;_NEW&quot;&gt;\nhttp://imgmak.com/Pm&lt;/a&gt;\n &lt;a href=&quot;\nhttp://imgmak.com/Pu&quot; rel=&quot;nofollow&quot; target=&quot;_NEW&quot;&gt;\nhttp://imgmak.com/Pu&lt;/a&gt;\n &lt;a href=&quot;\nhttp://imgmak.com/P5&quot; rel=&quot;nofollow&quot; target=&quot;_NEW&quot;&gt;\nhttp://imgmak.com/P5&lt;/a&gt;\n &lt;a href=&quot;\nhttp://imgmak.com/P1&quot; rel=&quot;nofollow&quot; target=&quot;_NEW&quot;&gt;\nhttp://imgmak.com/P1&lt;/a&gt;\n &lt;a href=&quot;\nhttp://imgmak.com/PU&quot; rel=&quot;nofollow&quot; target=&quot;_NEW&quot;&gt;\nhttp://imgmak.com/PU&lt;/a&gt;\n &lt;a href=&quot;\nhttp://imgmak.com/P3&quot; rel=&quot;nofollow&quot; target=&quot;_NEW&quot;&gt;\nhttp://imgmak.com/P3&lt;/a&gt;\n\n::::::::::::::::::::::::;\n\nTED 2 {2015} HDTS XVID AC3 NEWSOURCE-MRG\n\nAudio Source : CM8...TY...\nVideo Source : CriMiNaL..TY bro\n\nFormat : AVI\nFormat/Info : Audio Video Interleave\nFile size : 1.60 GiB\nDuration : 1h 48mn\nOverall bit rate : 2 123 Kbps\n\nVideo\nID : 0\nFormat : MPEG-4 Visual\nFormat profile : Advanced Simple@L5\nFormat settings, BVOP : 2\nFormat settings, QPel : No\nFormat settings, GMC : No warppoints\nFormat settings, Matrix : Default (H.263)\nCodec ID : XVID\nCodec ID/Hint : XviD\nDuration : 1h 48mn\nBit rate : 1 856 Kbps\nWidth : 720 pixels\nHeight : 288 pixels\nDisplay aspect ratio : 2.500\nFrame rate : 25.000 fps\nColor space : YUV\nChroma subsampling : 4:2:0\nBit depth : 8 bits\nScan type : Progressive\nCompression mode : Lossy\nBits/(Pixel*Frame) : 0.358\nStream size : 1.40 GiB (87%)\nWriting library : XviD 73\n\nAudio\nID : 1\nFormat : AC-3\nFormat/Info : Audio Coding 3\nMode extension : CM (complete main)\nFormat settings, Endianness : Big\nCodec ID : 2000\nDuration : 1h 48mn\nBit rate mode : Constant\nBit rate : 256 Kbps\nChannel(s) : 2 channels\nChannel positions : Front: L R\nSampling rate : 48.0 KHz\nBit depth : 16 bits\nCompression mode : Lossy\nStream size : 198 MiB (12%)\nAlignment : Split accross interleaves\nInterleave, duration : 32 ms (0.80 video frame)","torrent":{"xt":"urn:btih:60dfb25a5338f7395200df462d430a5c4c84a12c","amp;dn":"TED+2+%7B2015%7D+HDTS+XVID+AC3+NEWSOURCE-MRG","amp;tr":["udp%3A%2F%2Ftracker.openbittorrent.com%3A80","udp%3A%2F%2Fopen.demonii.com%3A1337","udp%3A%2F%2Ftracker.coppersurfer.tk%3A6969","udp%3A%2F%2Fexodus.desync.com%3A6969"],"infoHash":"60dfb25a5338f7395200df462d430a5c4c84a12c","infoHashBuffer":{"type":"Buffer","data":[96,223,178,90,83,56,247,57,82,0,223,70,45,67,10,92,76,132,161,44]},"announce":[],"urlList":[]}}